<?xml version="1.0" encoding="UTF-8" standalone="no"?>
<svg
   viewBox="0 0 256 256"
   version="1.1"
   id="svg4"
   sodipodi:docname="hooli.svg"
   width="256"
   height="256"
   inkscape:export-filename="adaptive-icon.png"
   inkscape:export-xdpi="384"
   inkscape:export-ydpi="384"
   inkscape:version="1.2.2 (732a01da63, 2022-12-09)"
   xmlns:inkscape="http://www.inkscape.org/namespaces/inkscape"
   xmlns:sodipodi="http://sodipodi.sourceforge.net/DTD/sodipodi-0.dtd"
   xmlns="http://www.w3.org/2000/svg"
   xmlns:svg="http://www.w3.org/2000/svg">
  <defs
     id="defs8" />
  <sodipodi:namedview
     id="namedview6"
     pagecolor="#ffffff"
     bordercolor="#000000"
     borderopacity="0.25"
     inkscape:showpageshadow="2"
     inkscape:pageopacity="0.0"
     inkscape:pagecheckerboard="0"
     inkscape:deskcolor="#d1d1d1"
     showgrid="false"
     inkscape:zoom="1.0097656"
     inkscape:cx="166.37524"
     inkscape:cy="219.853"
     inkscape:window-width="1366"
     inkscape:window-height="697"
     inkscape:window-x="-8"
     inkscape:window-y="-8"
     inkscape:window-maximized="1"
     inkscape:current-layer="svg4" />
  <!--! Font Awesome Free 6.1.1 by @fontawesome - https://fontawesome.com License - https://fontawesome.com/license/free (Icons: CC BY 4.0, Fonts: SIL OFL 1.1, Code: MIT License) Copyright 2022 Fonticons, Inc. -->
  <path
     d="m 86.523981,150.16718 9.04925,0.18902 c -3.1188,-1.08686 -6.14309,-2.40999 -9.04925,-3.96939 z m 13.632949,-1.25225 v 1.25225 l -4.583699,0.18902 c 8.623959,2.9534 16.515479,3.35507 22.375039,1.70116 -4.70182,0.0473 -10.82129,-0.61431 -17.79134,-3.14243 z m 96.61198,-27.21864 c 3.75674,0 6.82829,-3.04792 6.82829,-6.82828 0,-3.78037 -3.04792,-5.78869 -6.82829,-5.78869 -3.75674,0 -6.82828,2.03195 -6.82828,5.78869 0,3.75674 3.04792,6.82828 6.82828,6.82828 z m -6.85191,28.47089 h 13.6802 V 124.05902 H 189.917 Z m -17.41331,0 h 13.6802 v -46.1441 l -13.6802,6.45025 z m -7.32446,-28.21099 c -4.30017,-4.30016 -11.90815,-4.04026 -11.90815,-4.04026 0,0 -7.63162,-0.2599 -11.90816,4.04026 -4.30017,4.30017 -3.96939,8.00966 -3.96939,12.42796 0,4.4183 -0.33078,8.10416 3.96939,12.40433 4.30017,4.30016 11.90816,4.04026 11.90816,4.04026 0,0 7.63161,0.2599 11.90815,-4.04026 4.30016,-4.30017 3.96938,-7.98603 3.96938,-12.40433 -0.0236,-4.44193 0.30716,-8.15142 -3.96938,-12.42796 z m -9.40366,16.98803 c 0,0.85058 -0.42529,2.9534 -2.52812,2.9534 -2.10283,0 -2.52812,-2.10282 -2.52812,-2.9534 v -9.54543 c 0,-2.05558 1.72479,-2.57538 2.52812,-2.57538 0.80332,0 2.52812,0.49618 2.52812,2.57538 z m -25.09219,-16.98803 c -4.30016,-4.30016 -11.90815,-4.04026 -11.90815,-4.04026 0,0 -7.60799,-0.2599 -11.90815,4.04026 -0.44892,0.44892 -0.87421,0.92147 -1.25225,1.41764 -9.025619,-6.99368 -17.129779,-10.98669 -24.123459,-14.43627 v -4.89085 l -5.316142,2.50449 c -12.853243,-5.22163 -21.028285,-4.30017 -22.98935,0.0236 0,0 -5.883195,7.74975 14.601664,26.17904 v 17.41331 h 13.680198 v -6.7574 c -1.535773,-0.99235 -3.071544,-2.05558 -4.583693,-3.21331 -3.496836,-2.64626 -6.473873,-5.1035 -9.072877,-7.41897 v -7.32446 c 3.095176,3.47321 7.206324,7.41896 12.61697,11.88452 l 1.06323,0.85059 v -7.04094 c 0,-1.63028 0.40166,-4.30016 2.55175,-4.30016 2.15008,0 2.50449,1.63028 2.50449,3.54409 v 11.50649 c 4.25291,2.88253 8.81298,5.22163 13.632949,6.99368 v -22.18603 c 0,-4.4183 -3.166059,-8.8366 -9.592679,-8.8366 -3.73311,-0.0236 -7.20633,1.93743 -9.09651,5.17437 v -12.82961 c 9.89984,4.9381 19.823299,10.98668 23.603659,13.77471 -2.40998,3.44958 -2.19734,6.63926 -2.19734,10.32512 0,4.4183 -0.33078,8.10416 3.96939,12.40433 4.30016,4.30016 11.90815,4.04027 11.90815,4.04027 0,0 7.63161,0.25989 11.90815,-4.04027 4.30017,-4.30017 3.94576,-7.98603 3.94576,-12.40433 0,-4.37105 0.35441,-8.08053 -3.94576,-12.35707 z M 67.787543,110.47333 v 14.95608 c -11.506489,-12.87687 -9.191015,-17.95674 -8.316805,-18.68919 3.189684,-2.69351 8.860233,-1.89018 15.215976,0.49617 z m 53.515807,28.47089 c 0,0.85058 -0.42529,2.9534 -2.52812,2.9534 -2.10283,0 -2.52812,-2.10282 -2.52812,-2.9534 v -9.54543 c 0,-2.05558 1.72479,-2.57538 2.52812,-2.57538 0.80333,0 2.52812,0.49618 2.52812,2.57538 z"
     id="path2"
     style="stroke-width:0.236273;fill:#ff3c3c;fill-opacity:1" />
</svg>
